<svg width="151" height="60" viewBox="0 0 151 60" fill="none" xmlns="http://www.w3.org/2000/svg">
<path d="M0.574219 0V4.10107H29.743V0H0.574219ZM33.8757 0V4.10107H75.4425C75.4425 4.10107 71.1966 0 65.5732 0H33.8757ZM83.5967 0V4.10107H108.744L107.251 0H83.5967ZM126.773 0L125.281 4.10107H150.2V0H126.773ZM0.574219 7.97561V12.0767H29.743V7.97561H0.574219ZM33.8757 7.98146V12.0767H80.2659C80.2659 12.0767 79.7242 8.92039 78.7791 7.98146H33.8757ZM83.5967 7.98146V12.0767H111.501L110.12 7.98146H83.5967ZM123.788 7.98146L122.406 12.0767H150.2V7.98146H123.788ZM8.95666 15.9512V20.0576H21.5889V15.9512H8.95666ZM42.2581 15.9512V20.0576H54.8903V15.9512H42.2581ZM67.1771 15.9512V20.0576H79.8093C79.8093 20.0576 80.6113 17.8888 80.6113 15.9509H67.1771V15.9512ZM91.9791 15.9512V20.0576H114.375L112.883 15.9509H91.9791V15.9512ZM121.037 15.9512L119.538 20.0579H142.045V15.9512H121.037ZM8.95666 23.9327V28.0332H21.5889V23.9327H8.95666ZM42.2581 23.9327V28.0332H74.5235C74.5235 28.0332 77.2226 25.9288 78.0825 23.9321H42.2581V23.9327ZM91.9791 23.9327V28.0332H104.611V25.7502L105.413 28.0332H128.553L129.413 25.7502V28.0332H142.045V23.9327H118.332L117.074 27.4065L115.809 23.9327H91.9791ZM8.95666 31.9077V36.0088H21.5889V31.9077H8.95666ZM42.2581 31.9077V36.0088H78.0825C77.2223 34.0185 74.5235 31.9077 74.5235 31.9077H42.2581ZM91.9791 31.9077V36.0088H104.611V31.9077H91.9791ZM106.906 31.9077L108.434 36.0088H125.784L127.236 31.9077H106.906ZM129.413 31.9077V36.0088H142.045V31.9077H129.413ZM8.95666 39.8833V43.9844H21.5889V39.8833H8.95666ZM42.2581 39.8833V43.9844H54.8903V39.8833H42.2581ZM67.1771 39.8833V43.9844H80.6113C80.6113 42.0489 79.8093 39.8833 79.8093 39.8833H67.1771ZM91.9791 39.8833V43.9844H104.611V39.8833H91.9791ZM109.774 39.8833L111.255 43.9844H122.886L124.379 39.8833H109.774ZM129.413 39.8833V43.9844H142.045V39.8833H129.413ZM0.802511 47.8592V51.9659H29.9713V47.8589H0.802511V47.8592ZM33.8757 47.8592V51.9659H78.7791C79.7242 51.0255 80.2659 47.8589 80.2659 47.8589H33.8757V47.8592ZM83.825 47.8592V51.9659H104.611V47.8589H83.825V47.8592ZM112.648 47.8592L114.17 51.9659H120.088L121.517 47.8589H112.648V47.8592ZM129.413 47.8592V51.9659H150.428V47.8589H129.413V47.8592ZM0.802511 55.8404V59.9415H29.9713V55.8404H0.802511ZM33.8757 55.8404V59.9353H65.5732C71.1966 59.9353 75.4425 55.8401 75.4425 55.8401H33.8757V55.8404ZM83.825 55.8404V59.9415H104.611V55.8404H83.825ZM115.534 55.8404L116.998 59.9295L117.249 59.9353L118.736 55.8401H115.534V55.8404ZM129.413 55.8404V59.9415H150.428V55.8404H129.413Z" fill="#1F70C1"/>
</svg>
